<svg width="222" height="172" viewBox="0 0 222 172" fill="none" xmlns="http://www.w3.org/2000/svg">
<path d="M64.419 0.330322H31.289C14.0094 0.330322 0 14.7184 0 32.465V66.4904C0 84.237 14.0094 98.6246 31.289 98.6246H34.5665C37.3146 98.6246 39.8889 100.018 41.4477 102.348C42.9995 104.679 43.3403 107.647 42.3469 110.28L23.6603 160.015C22.667 162.651 23.0078 165.618 24.5596 167.946C26.1184 170.276 28.6926 171.669 31.4408 171.669H53.4404C56.5437 171.669 59.3937 169.896 60.8293 167.074L87.39 114.96C92.8571 104.232 95.7141 92.3016 95.7141 80.1931V32.4645C95.715 14.7184 81.6986 0.330322 64.419 0.330322Z" fill="white" fill-opacity="0.07"/>
<path d="M190.712 0.330322H157.581C140.302 0.330322 126.293 14.7184 126.293 32.465V66.4904C126.293 84.237 140.302 98.6246 157.581 98.6246H160.852C163.6 98.6246 166.181 100.018 167.733 102.348C169.292 104.679 169.625 107.647 168.639 110.28L149.946 160.015C148.953 162.651 149.293 165.619 150.852 167.946C152.404 170.277 154.978 171.67 157.734 171.67H179.726C182.83 171.67 185.68 169.897 187.123 167.075L213.676 114.96C219.143 104.232 222 92.3021 222 80.1931V32.4645C222 14.7184 207.991 0.330322 190.712 0.330322Z" fill="white" fill-opacity="0.07"/>
</svg>
